REM DIRINDEX 1\2\4,1\2\5,1\2\6,1\3\7,1\3\8,1\3\9,1\3\10
REM DIRNAME folder01,folder02,folder03,folder04,folder05,folder06,folder07,folder08,folder09,folder10
TITLE ""
FILE "b_27.mp3" MP3
  TRACK 01 AUDIO
    TITLE "0:"
    INDEX 01 00:00:00
  TRACK 02 AUDIO
    TITLE "10:cjc058_2875"
    INDEX 01 00:00:15
  TRACK 03 AUDIO
    TITLE "0:"
    INDEX 01 00:05:34
  TRACK 04 AUDIO
    TITLE "10:cjc058_2876"
    INDEX 01 00:06:08
  TRACK 05 AUDIO
    TITLE "0:"
    INDEX 01 00:10:21
  TRACK 06 AUDIO
    TITLE "7:cjc058_2877"
    INDEX 01 00:10:65
  TRACK 07 AUDIO
    TITLE "0:"
    INDEX 01 00:13:16
  TRACK 08 AUDIO
    TITLE "8:cjc058_2878"
    INDEX 01 00:13:49
  TRACK 09 AUDIO
    TITLE "0:"
    INDEX 01 00:15:42
  TRACK 10 AUDIO
    TITLE "9:cjc058_2879"
    INDEX 01 00:16:12
  TRACK 11 AUDIO
    TITLE "0:"
    INDEX 01 00:20:36
  TRACK 12 AUDIO
    TITLE "7:cjc058_2880"
    INDEX 01 00:21:45
  TRACK 13 AUDIO
    TITLE "0:"
    INDEX 01 00:23:48
  TRACK 14 AUDIO
    TITLE "8:cjc058_2881"
    INDEX 01 00:24:04
  TRACK 15 AUDIO
    TITLE "0:"
    INDEX 01 00:28:13
  TRACK 16 AUDIO
    TITLE "9:cjc058_2882"
    INDEX 01 00:28:59
  TRACK 17 AUDIO
    TITLE "0:"
    INDEX 01 00:32:62
  TRACK 18 AUDIO
    TITLE "7:cjc058_2883"
    INDEX 01 00:33:71
  TRACK 19 AUDIO
    TITLE "0:"
    INDEX 01 00:35:74
  TRACK 20 AUDIO
    TITLE "8:cjc058_2884"
    INDEX 01 00:36:35
  TRACK 21 AUDIO
    TITLE "0:"
    INDEX 01 00:39:35
  TRACK 22 AUDIO
    TITLE "9:cjc058_2885"
    INDEX 01 00:40:03
  TRACK 23 AUDIO
    TITLE "0:"
    INDEX 01 00:44:01
  TRACK 24 AUDIO
    TITLE "7:cjc058_2886"
    INDEX 01 00:45:12
  TRACK 25 AUDIO
    TITLE "0:"
    INDEX 01 00:47:11
  TRACK 26 AUDIO
    TITLE "8:cjc058_2887"
    INDEX 01 00:47:44
  TRACK 27 AUDIO
    TITLE "0:"
    INDEX 01 00:51:05
  TRACK 28 AUDIO
    TITLE "9:cjc058_2888"
    INDEX 01 00:51:48
  TRACK 29 AUDIO
    TITLE "0:"
    INDEX 01 00:55:46
  TRACK 30 AUDIO
    TITLE "7:cjc058_2889"
    INDEX 01 00:56:57
  TRACK 31 AUDIO
    TITLE "0:"
    INDEX 01 00:58:69
  TRACK 32 AUDIO
    TITLE "8:cjc058_2890"
    INDEX 01 00:59:30
  TRACK 33 AUDIO
    TITLE "0:"
    INDEX 01 01:01:34
  TRACK 34 AUDIO
    TITLE "9:cjc058_2891"
    INDEX 01 01:02:06
  TRACK 35 AUDIO
    TITLE "0:"
    INDEX 01 01:05:30
  TRACK 36 AUDIO
    TITLE "7:cjc058_2892"
    INDEX 01 01:06:40
  TRACK 37 AUDIO
    TITLE "0:"
    INDEX 01 01:08:52
  TRACK 38 AUDIO
    TITLE "8:cjc058_2893"
    INDEX 01 01:09:12
  TRACK 39 AUDIO
    TITLE "0:"
    INDEX 01 01:11:19
  TRACK 40 AUDIO
    TITLE "9:cjc058_2894"
    INDEX 01 01:11:62
  TRACK 41 AUDIO
    TITLE "0:"
    INDEX 01 01:16:67
  TRACK 42 AUDIO
    TITLE "7:cjc058_2895"
    INDEX 01 01:18:04
  TRACK 43 AUDIO
    TITLE "0:"
    INDEX 01 01:20:02
  TRACK 44 AUDIO
    TITLE "8:cjc058_2896"
    INDEX 01 01:20:38
  TRACK 45 AUDIO
    TITLE "0:"
    INDEX 01 01:22:58
  TRACK 46 AUDIO
    TITLE "9:cjc058_2897"
    INDEX 01 01:23:26
  TRACK 47 AUDIO
    TITLE "0:"
    INDEX 01 01:27:04
  TRACK 48 AUDIO
    TITLE "7:cjc058_2898"
    INDEX 01 01:28:12
  TRACK 49 AUDIO
    TITLE "0:"
    INDEX 01 01:30:26
  TRACK 50 AUDIO
    TITLE "8:cjc058_2899"
    INDEX 01 01:30:60
  TRACK 51 AUDIO
    TITLE "0:"
    INDEX 01 01:33:48
  TRACK 52 AUDIO
    TITLE "9:cjc058_2900"
    INDEX 01 01:34:16
  TRACK 53 AUDIO
    TITLE "0:"
    INDEX 01 01:39:37
  TRACK 54 AUDIO
    TITLE "7:cjc058_2901"
    INDEX 01 01:40:48
  TRACK 55 AUDIO
    TITLE "0:"
    INDEX 01 01:42:67
  TRACK 56 AUDIO
    TITLE "8:cjc058_2902"
    INDEX 01 01:43:27
  TRACK 57 AUDIO
    TITLE "0:"
    INDEX 01 01:45:47
  TRACK 58 AUDIO
    TITLE "9:cjc058_2903"
    INDEX 01 01:46:19
  TRACK 59 AUDIO
    TITLE "0:"
    INDEX 01 01:50:60
  TRACK 60 AUDIO
    TITLE "7:cjc058_2904"
    INDEX 01 01:51:66
  TRACK 61 AUDIO
    TITLE "0:"
    INDEX 01 01:54:03
  TRACK 62 AUDIO
    TITLE "8:cjc058_2905"
    INDEX 01 01:54:39
  TRACK 63 AUDIO
    TITLE "0:"
    INDEX 01 01:56:37
  TRACK 64 AUDIO
    TITLE "9:cjc058_2906"
    INDEX 01 01:57:09
  TRACK 65 AUDIO
    TITLE "0:"
    INDEX 01 02:00:12
  TRACK 66 AUDIO
    TITLE "7:cjc058_2907"
    INDEX 01 02:01:21
  TRACK 67 AUDIO
    TITLE "0:"
    INDEX 01 02:03:39
  TRACK 68 AUDIO
    TITLE "8:cjc058_2908"
    INDEX 01 02:04:00
  TRACK 69 AUDIO
    TITLE "0:"
    INDEX 01 02:06:24
  TRACK 70 AUDIO
    TITLE "9:cjc058_2909"
    INDEX 01 02:06:71
  TRACK 71 AUDIO
    TITLE "0:"
    INDEX 01 02:09:58
  TRACK 72 AUDIO
    TITLE "7:cjc058_2910"
    INDEX 01 02:10:69
  TRACK 73 AUDIO
    TITLE "0:"
    INDEX 01 02:13:16
  TRACK 74 AUDIO
    TITLE "8:cjc058_2911"
    INDEX 01 02:13:52
  TRACK 75 AUDIO
    TITLE "0:"
    INDEX 01 02:15:68
  TRACK 76 AUDIO
    TITLE "9:cjc058_2912"
    INDEX 01 02:16:40
  TRACK 77 AUDIO
    TITLE "0:"
    INDEX 01 02:19:62
